<?xml version="1.0" standalone="no"?>
<!DOCTYPE svg PUBLIC "-//W3C//DTD SVG 20010904//EN"
 "http://www.w3.org/TR/2001/REC-SVG-20010904/DTD/svg10.dtd">
<svg version="1.0" xmlns="http://www.w3.org/2000/svg"
 width="554.000000pt" height="554.000000pt" viewBox="0 0 554.000000 554.000000"
 preserveAspectRatio="xMidYMid meet">
<metadata>
Created by potrace 1.16, written by Peter Selinger 2001-2019
</metadata>
<g transform="translate(0.000000,554.000000) scale(0.100000,-0.100000)"
fill="#000000" stroke="none">
<path d="M0 2770 l0 -2770 2770 0 2770 0 0 2770 0 2770 -2770 0 -2770 0 0
-2770z m2310 1370 c166 -26 391 -88 456 -125 30 -18 64 -57 129 -152 114 -165
255 -354 317 -421 29 -33 48 -63 48 -78 0 -13 -14 -56 -32 -94 -23 -54 -28
-74 -20 -82 18 -18 14 -49 -9 -83 -41 -60 -99 -185 -99 -213 0 -22 7 -32 33
-44 17 -9 54 -35 80 -58 48 -43 48 -43 45 -98 -3 -54 -2 -55 27 -63 38 -11 65
-3 65 20 0 18 45 71 60 71 4 0 24 14 45 30 77 61 204 18 205 -70 0 -14 7 -34
15 -44 17 -23 20 -130 5 -170 -5 -15 -25 -34 -45 -43 -30 -15 -40 -15 -71 -4
-62 23 -47 6 46 -49 162 -96 263 -195 383 -373 57 -85 140 -245 157 -304 11
-36 11 -46 -4 -68 -14 -21 -24 -25 -67 -25 -50 0 -110 19 -139 44 -8 7 -27 16
-42 20 -42 10 -98 64 -98 93 0 17 -15 40 -42 68 -42 41 -45 42 -126 49 -68 5
-89 11 -125 36 -33 23 -64 33 -139 45 -54 8 -126 15 -161 15 -56 0 -71 -5
-125 -37 -75 -46 -82 -55 -120 -165 -42 -117 -65 -160 -104 -193 -47 -40 -165
-93 -224 -100 -45 -6 -208 8 -256 21 -15 4 -18 -1 -18 -32 0 -63 -19 -74 -124
-74 -79 0 -95 3 -119 23 -36 28 -47 79 -37 160 10 81 24 115 63 155 29 30 35
32 101 32 88 0 136 24 136 67 0 16 3 38 6 51 9 31 -21 29 -49 -4 -19 -22 -31
-26 -73 -26 -28 0 -73 3 -100 6 -29 4 -87 1 -144 -8 -125 -21 -229 -21 -258 0
-34 24 -27 54 34 134 88 117 88 115 94 295 5 126 10 167 24 192 31 58 21 73
-69 103 -92 30 -142 55 -202 99 -70 50 -78 71 -79 191 -1 58 -4 179 -9 270
l-8 165 -66 65 c-71 69 -104 123 -95 157 3 12 23 35 45 52 21 17 58 64 81 104
50 84 108 143 227 232 86 64 311 203 373 230 39 17 109 19 198 5z"/>
<path d="M2169 4080 c-88 -24 -460 -266 -531 -346 -9 -11 -39 -57 -67 -104
-29 -47 -66 -97 -83 -112 l-31 -27 37 -45 c20 -25 54 -58 75 -73 l38 -27 6
-151 c4 -82 11 -170 17 -195 7 -28 9 -80 5 -137 l-7 -91 48 -36 c74 -53 169
-96 266 -120 l87 -21 -19 -30 c-14 -21 -18 -39 -14 -62 4 -23 0 -42 -16 -68
-20 -32 -23 -53 -27 -188 -5 -174 -13 -199 -87 -290 -26 -33 -45 -61 -42 -64
3 -4 65 2 137 12 91 12 160 16 223 12 l91 -6 43 69 c24 39 47 70 52 70 11 0
20 -26 20 -58 0 -26 1 -26 40 18 l40 45 0 -46 c0 -25 5 -50 10 -55 7 -7 5 -26
-7 -59 -14 -37 -15 -49 -5 -52 15 -6 16 -33 2 -33 -6 0 -19 -19 -29 -42 -16
-39 -24 -45 -77 -63 -32 -11 -85 -20 -116 -20 -64 0 -87 -18 -88 -67 0 -15 -4
-30 -10 -33 -5 -3 -10 -26 -10 -51 0 -61 24 -84 88 -84 27 0 52 3 55 7 4 3 -2
20 -12 37 -17 27 -18 33 -5 50 12 17 25 19 101 18 49 -1 123 -7 166 -13 92
-12 120 -7 204 34 86 41 108 69 148 181 54 151 66 168 141 216 37 23 79 46 93
50 33 9 267 -5 338 -20 29 -6 69 -25 89 -41 33 -26 44 -29 98 -28 72 3 119
-18 184 -81 33 -32 42 -48 38 -63 -6 -24 19 -57 44 -57 9 0 35 -14 58 -31 45
-33 112 -50 112 -29 0 15 -94 196 -114 220 -7 8 -24 36 -38 62 -55 101 -179
232 -288 305 -97 65 -153 93 -186 93 -14 0 -38 7 -52 15 -15 8 -40 20 -57 26
l-30 11 35 13 c19 7 73 32 118 55 79 39 85 40 102 25 24 -22 37 -13 49 31 14
51 -3 81 -51 94 -44 12 -49 25 -12 34 31 8 27 28 -10 41 -24 8 -31 6 -52 -18
-12 -15 -29 -27 -37 -27 -20 0 -37 -21 -37 -47 0 -39 -40 -56 -126 -51 -69 3
-78 6 -101 32 -21 25 -24 35 -18 75 5 41 3 49 -22 72 -36 34 -91 62 -108 55
-7 -2 -21 7 -30 20 -15 23 -15 27 -1 43 9 10 16 31 16 47 0 31 55 155 92 207
l21 30 -22 17 -23 17 47 86 c27 51 43 92 39 99 -4 7 -28 38 -54 68 -63 75
-178 229 -283 381 -62 89 -98 132 -125 147 -94 52 -487 139 -553 122z m251
-44 c294 -65 325 -82 420 -236 19 -30 65 -98 103 -150 97 -133 94 -128 75
-110 -32 31 -146 168 -196 235 -28 39 -61 82 -72 97 -26 34 -143 80 -303 118
-204 48 -198 48 -328 -3 -63 -25 -156 -63 -206 -85 -51 -22 -93 -39 -93 -38 0
1 35 24 78 50 42 27 90 58 107 69 16 12 59 36 95 54 60 31 70 33 135 29 39 -3
122 -17 185 -30z m-424 -531 c37 -126 43 -200 19 -244 -26 -52 -81 -56 -120
-9 -24 29 -27 38 -23 93 6 79 67 300 80 287 6 -6 25 -63 44 -127z m539 68 c55
-58 101 -140 135 -240 26 -79 30 -105 30 -194 -1 -102 -1 -103 -17 -74 -22 40
-129 330 -159 430 -13 44 -27 88 -30 98 -8 25 1 21 41 -20z m246 -31 c69 -78
94 -186 69 -293 l-13 -54 -23 90 c-22 90 -66 211 -105 287 l-20 40 31 -19 c18
-10 45 -33 61 -51z m-406 -156 c14 -48 52 -139 84 -202 l58 -114 -36 22 c-128
76 -197 218 -171 352 15 75 22 87 31 56 4 -14 19 -65 34 -114z m763 -804 c4
-27 -11 -30 -148 -34 -92 -3 -110 -6 -135 -26 -15 -12 -53 -30 -84 -39 -31 -9
-75 -24 -99 -34 -43 -19 -82 -13 -82 12 0 5 26 36 58 68 l57 58 70 -7 c39 -4
93 -11 120 -15 l51 -7 43 51 44 51 51 -28 c32 -19 52 -37 54 -50z"/>
</g>
</svg>
